<svg id="Слой_1" data-name="Слой 1" xmlns="http://www.w3.org/2000/svg" viewBox="0 0 256 256"><title>carrot</title><path d="M47.29,254.52a15.19,15.19,0,0,1-8.12-2.43c-6-3.8-8.45-10.61-6.11-17L90.61,79A44,44,0,0,1,117.9,52.67c14.33-4.9,30.27-2.89,43.71,5.52s22.34,22,24.14,37.14a43.94,43.94,0,0,1-12.1,36.16L57.12,250.36A13.66,13.66,0,0,1,47.29,254.52ZM133.76,61.75a37.49,37.49,0,0,0-12.08,2,31.89,31.89,0,0,0-20.09,19.32L44,239.19c-.59,1.6.92,2.71,1.4,3s2.13,1.2,3.34,0L165.3,123.3a31.81,31.81,0,0,0,8.83-26.58c-1.37-11.6-8.2-22-18.72-28.61A41,41,0,0,0,133.76,61.75Z"/><path d="M159.94,68.52a5.86,5.86,0,0,1-5-8.95L181,17.9A5.85,5.85,0,0,1,191,24.1L172.39,53.79l44.28-10.21A5.85,5.85,0,0,1,219.3,55l-58,13.38A5.94,5.94,0,0,1,159.94,68.52Z"/><path d="M159.94,68.52a5.86,5.86,0,0,1-5.7-4.54L141.6,9.17A5.85,5.85,0,1,1,153,6.54l12.64,54.81a5.85,5.85,0,0,1-4.38,7A6,6,0,0,1,159.94,68.52Z"/><path d="M117.6,109.74a5.84,5.84,0,0,1-3.09-.89L90.18,93.64a5.85,5.85,0,0,1,6.2-9.92l24.33,15.21a5.85,5.85,0,0,1-3.11,10.81Z"/><path d="M126.85,172a5.88,5.88,0,0,1-3.1-.89L96.06,153.81a5.85,5.85,0,0,1,6.2-9.92L130,161.21A5.85,5.85,0,0,1,126.85,172Z"/><path d="M74.84,200.21a5.88,5.88,0,0,1-3.1-.89l-13.89-8.68a5.85,5.85,0,0,1,6.2-9.92l13.89,8.68a5.85,5.85,0,0,1-3.1,10.81Z"/></svg>