<svg id="Слой_1" data-name="Слой 1" xmlns="http://www.w3.org/2000/svg" viewBox="0 0 256 256"><title>delivery</title><path d="M110.36,135.42a5.25,5.25,0,0,0,7.43,7.42l13.93-13.92.09-.12a4.41,4.41,0,0,0,.47-.58l.15-.21a4.34,4.34,0,0,0,.42-.8h0a5.16,5.16,0,0,0,.33-1.34,1.73,1.73,0,0,0,0-.32,5.06,5.06,0,0,0-.07-1.35s0,0,0,0a4.71,4.71,0,0,0-.44-1.24,2.85,2.85,0,0,0-.16-.3,4.83,4.83,0,0,0-.82-1.11h0l-14.66-14.66a5.25,5.25,0,0,0-7.43,7.43l5.69,5.69H9.25a5.26,5.26,0,0,0,0,10.51H115.32Z"/><path d="M213.27,86.24H189V71a5.25,5.25,0,0,0-5.25-5.25H60.57A5.25,5.25,0,0,0,55.32,71V95H29.79a5.26,5.26,0,1,0,0,10.51H60.57a5.26,5.26,0,0,0,5.25-5.26V76.21H178.45v99.46H120.88a21.38,21.38,0,0,0-41.46,0H65.82V151.59a5.26,5.26,0,0,0-5.25-5.26H29.79a5.26,5.26,0,1,0,0,10.51H55.32v24.08a5.26,5.26,0,0,0,5.25,5.26H79.42a21.39,21.39,0,0,0,41.46,0H192.3a21.39,21.39,0,0,0,41.46,0h13a5.26,5.26,0,0,0,5.25-5.26V125A38.78,38.78,0,0,0,213.27,86.24ZM100.14,191.79a10.9,10.9,0,0,1-10.87-10.87,10.59,10.59,0,0,1,1.37-5.25,10.85,10.85,0,0,1,19,0,10.58,10.58,0,0,1,1.36,5.25,10.88,10.88,0,0,1-10.88,10.87Zm112.88,0a10.88,10.88,0,0,1-10.86-10.87,10.58,10.58,0,0,1,1.36-5.25,10.85,10.85,0,0,1,19,0,10.59,10.59,0,0,1,1.37,5.25A10.9,10.9,0,0,1,213,191.79Zm28.47-16.12h-7.73a21.38,21.38,0,0,0-41.46,0H189V96.74h24.31A28.24,28.24,0,0,1,241.49,125Z"/></svg>