<svg width="77" height="40" viewBox="0 0 77 40" fill="none" xmlns="http://www.w3.org/2000/svg">
<path d="M23.6526 39.8468C23.4826 39.8924 23.3367 39.8735 23.215 39.7901C23.0933 39.7068 23.0251 39.576 23.0104 39.3977L22.1782 23.4952C22.1636 23.3169 22.2113 23.1551 22.3214 23.0096C22.4274 22.8487 22.5654 22.7455 22.7354 22.6999L33.6774 19.768C33.8474 19.7225 33.9876 19.7512 34.098 19.8541C34.2197 19.9374 34.2879 20.0683 34.3025 20.2465L34.4306 22.672C34.4453 22.8503 34.3976 23.0122 34.2875 23.1576C34.1773 23.3031 34.0373 23.3986 33.8673 23.4441L26.5417 25.407L26.6815 28.5251L33.5202 26.6927C33.6902 26.6471 33.8304 26.6758 33.9408 26.7787C34.0626 26.8621 34.1307 26.9929 34.1454 27.1712L34.2702 29.3988C34.2848 29.577 34.2392 29.7466 34.1332 29.9076C34.0231 30.053 33.883 30.1485 33.713 30.1941L26.8743 32.0265L27.0559 35.2079L34.5669 33.1953C34.7369 33.1498 34.8771 33.1785 34.9875 33.2814C35.1092 33.3647 35.1774 33.4955 35.1921 33.6738L35.3202 36.0993C35.3348 36.2776 35.2871 36.4395 35.177 36.5849C35.0669 36.7304 34.9346 36.8238 34.78 36.8652L23.6526 39.8468Z" fill="#FF7A5C"/>
<path d="M49.021 33.2978C47.6455 33.6664 46.4212 33.7957 45.3482 33.6856C44.2751 33.5756 43.4085 33.2778 42.7483 32.7921C42.084 32.291 41.6504 31.6617 41.4474 30.9045C41.4143 30.7808 41.3801 30.5912 41.3447 30.3357C41.3229 30.1924 41.3537 30.0599 41.437 29.9382C41.5358 29.8124 41.6547 29.7308 41.7938 29.6935L44.9003 28.8612C45.1012 28.8073 45.2563 28.7989 45.3656 28.8359C45.4903 28.8687 45.6275 28.9479 45.7771 29.0735C46.0001 29.4113 46.3302 29.6541 46.7674 29.802C47.2159 29.9303 47.7724 29.9054 48.4369 29.7273C49.2715 29.5037 49.9107 29.1999 50.3544 28.816C50.8095 28.4125 51.0311 27.9721 51.0191 27.4949C51.018 27.429 51.003 27.3419 50.974 27.2337C50.8705 26.8474 50.5502 26.6102 50.0131 26.5222C49.476 26.4342 48.5443 26.4188 47.2179 26.4761C43.9726 26.6665 42.0705 25.7185 41.5114 23.6321C41.412 23.2612 41.3569 22.8701 41.3461 22.4589C41.266 20.9233 41.7343 19.5803 42.7512 18.43C43.7795 17.26 45.2749 16.412 47.2377 15.8861C48.4123 15.5714 49.5191 15.4984 50.5582 15.6672C51.5973 15.836 52.4588 16.1767 53.1428 16.6891C53.838 17.182 54.2726 17.7529 54.4465 18.402C54.4672 18.4793 54.487 18.6148 54.5058 18.8086C54.5121 18.9559 54.4834 19.0961 54.4197 19.2292C54.3518 19.3467 54.2483 19.4242 54.1092 19.4614L50.8173 20.3435C50.4773 20.4346 50.2082 20.3576 50.0101 20.1126C49.8922 19.7963 49.6343 19.5755 49.2363 19.4503C48.8496 19.3054 48.3858 19.3054 47.8449 19.4504C47.1803 19.6285 46.6705 19.8893 46.3153 20.2329C45.9756 20.5724 45.8117 20.9808 45.8236 21.4579C45.8247 21.5239 45.8398 21.611 45.8688 21.7192C45.9682 22.0901 46.2575 22.3355 46.7369 22.4555C47.2277 22.556 48.0527 22.5751 49.2121 22.5129C51.0455 22.3695 52.4509 22.5147 53.4285 22.9484C54.4061 23.3822 55.0378 24.1323 55.3235 25.1987C55.4394 25.6314 55.5023 26.0204 55.512 26.3656C55.5985 28.0486 55.0869 29.4777 53.9773 30.6529C52.8831 31.824 51.231 32.7057 49.021 33.2978Z" fill="#FF7A5C"/>
<path d="M63.2163 29.2458C63.0463 29.2913 62.9004 29.2724 62.7787 29.1891C62.657 29.1057 62.5888 28.9749 62.5742 28.7966L61.7419 12.8942C61.7273 12.7159 61.775 12.554 61.8851 12.4086C61.9911 12.2477 62.1291 12.1444 62.2991 12.0989L65.4519 11.2541C65.6219 11.2085 65.7698 11.2352 65.8957 11.3339C66.0174 11.4173 66.0855 11.5481 66.1002 11.7264L66.3901 17.5374L71.8842 16.0652L71.5944 10.2542C71.5797 10.0759 71.6197 9.91613 71.7144 9.77482C71.8204 9.61391 71.9583 9.51068 72.1283 9.46513L75.3043 8.61413C75.4743 8.56858 75.6145 8.59727 75.7249 8.7002C75.8466 8.78354 75.9148 8.91435 75.9295 9.09264L76.7617 24.9951C76.7763 25.1734 76.7286 25.3353 76.6185 25.4807C76.5084 25.6262 76.376 25.7196 76.2215 25.761L73.0455 26.612C72.8755 26.6576 72.7297 26.6387 72.608 26.5553C72.4821 26.4565 72.4139 26.3257 72.4034 26.1629L72.1102 20.154L66.616 21.6262L66.9324 27.6288C66.9471 27.8071 66.8993 27.969 66.7892 28.1145C66.6791 28.2599 66.5391 28.3554 66.369 28.401L63.2163 29.2458Z" fill="#FF7A5C"/>
<path d="M2.05541 24.9282C1.8854 24.9738 1.73954 24.9549 1.61783 24.8716C1.49611 24.7882 1.42793 24.6574 1.41329 24.4791L0.581069 8.57665C0.566427 8.39836 0.614158 8.23649 0.724264 8.09104C0.830228 7.93013 0.968212 7.8269 1.13821 7.78135L11.8948 4.89914C12.0648 4.85359 12.2127 4.88021 12.3386 4.979C12.4603 5.06234 12.5285 5.19315 12.5431 5.37143L12.6683 7.97162C12.683 8.1499 12.6353 8.31177 12.5251 8.45722C12.415 8.60268 12.2827 8.69611 12.1282 8.73752L5.0344 10.6383L5.20236 14.047L11.8325 12.2704C12.0025 12.2249 12.1427 12.2536 12.2531 12.3565C12.3748 12.4398 12.443 12.5707 12.4576 12.7489L12.5829 15.3491C12.6088 15.5078 12.5611 15.6697 12.4397 15.8347C12.3296 15.9802 12.1895 16.0757 12.0195 16.1212L5.41258 17.8916L5.67882 23.3362C5.69346 23.5145 5.64573 23.6763 5.53562 23.8218C5.44097 23.9631 5.30864 24.0565 5.13864 24.1021L2.05541 24.9282Z" fill="#FF7A5C"/>
<path d="M21.4142 19.7411C21.2596 19.7825 21.1215 19.7615 20.9998 19.6782C20.8935 19.5907 20.8331 19.4578 20.8184 19.2795L19.963 3.38327C19.9484 3.20498 19.9961 3.04311 20.1062 2.89766C20.2122 2.73675 20.3502 2.63352 20.5202 2.58797L26.8953 0.879762C28.6571 0.407676 30.1103 0.390992 31.2549 0.82971C32.3994 1.26843 33.1456 2.13689 33.4935 3.43509C33.6012 3.83692 33.6687 4.27435 33.696 4.74739C33.7695 5.8872 33.5755 6.92478 33.1138 7.86013C32.6522 8.79549 31.9904 9.60225 31.1286 10.2804L34.5684 15.4213C34.6283 15.5212 34.6588 15.6041 34.6599 15.6701C34.6662 15.8175 34.62 15.9541 34.5212 16.08C34.4379 16.2017 34.3267 16.2812 34.1876 16.3184L30.9189 17.1943C30.4862 17.3102 30.1598 17.1741 29.9398 16.7858L27.1082 12.1528L24.8827 12.7491L25.1535 18.1179C25.1682 18.2962 25.1204 18.4581 25.0103 18.6036C24.9002 18.749 24.7602 18.8445 24.5902 18.8901L21.4142 19.7411ZM27.2615 8.45925C27.926 8.28118 28.4235 7.97397 28.7538 7.53761C29.08 7.08579 29.2262 6.54968 29.1925 5.92926C29.1903 5.79734 29.1581 5.61547 29.096 5.38365C28.98 4.95092 28.7498 4.64818 28.4054 4.47544C28.0568 4.28725 27.6043 4.26769 27.0479 4.41677L24.4747 5.10627L24.6883 9.14874L27.2615 8.45925Z" fill="#FF7A5C"/>
</svg>
